<svg xmlns="http://www.w3.org/2000/svg" viewBox="0 0 64 64">
  <defs>
    <linearGradient id="g4" x1="0" y1="1" x2="1" y2="0">
      <stop offset="0%" stop-color="#0d9488"/>
      <stop offset="100%" stop-color="#3b82f6"/>
    </linearGradient>
  </defs>
  <rect width="64" height="64" rx="14" fill="#0f172a"/>
  <!-- Baseline -->
  <line x1="8" y1="50" x2="56" y2="50" stroke="#334155" stroke-width="1.5"/>
  <!-- Bell curve (null distribution) -->
  <path d="M10 50 Q16 49 20 44 Q24 36 28 26 Q30 20 32 18 Q34 20 36 26 Q40 36 44 44 Q48 49 54 50" stroke="#64748b" stroke-width="2" fill="none" stroke-linecap="round"/>
  <!-- Shaded power region (right tail) -->
  <path d="M42 46 Q46 48 50 49 L54 50 L54 50 Q52 49 50 47 Q48 44 46 42 Z" fill="url(#g4)" opacity="0.8"/>
  <!-- Alternative distribution (shifted right) -->
  <path d="M22 50 Q28 49 32 44 Q36 36 40 26 Q42 20 44 18 Q46 20 48 26 Q52 36 54 44 Q56 48 58 50" stroke="url(#g4)" stroke-width="2.5" fill="none" stroke-linecap="round"/>
  <!-- Alpha region marker -->
  <line x1="42" y1="14" x2="42" y2="50" stroke="#ef4444" stroke-width="1.5" stroke-dasharray="3 2" opacity="0.7"/>
</svg>
